PathFileType	4	(X/Y/Z)	D:\MotionData\NordSprintingStudy\BertecTesting2023-09-14\Generated_files\Trimmed_running_0600000001-Feet.trc
DataRate	CameraRate	NumFrames	NumMarkers	Units	OrigDataRate	OrigDataStartFrame	OrigNumFrames
200.00	200.00	      34	10	mm	200.00	713	      1900
Frame#	Time	r_calc			r_toe			r_meta			r_ankle			r_mankle			l_calc			l_toe			l_meta			l_ankle			l_mankle			
		X1	Y1	Z1	X2	Y2	Z2	X3	Y3	Z3	X4	Y4	Z4	X5	Y5	Z5	X6	Y6	Z6	X7	Y7	Z7	X8	Y8	Z8	X9	Y9	Z9	X10	Y10	Z10	

713	3.560	462.82181	258.75354	271.39380	568.34045	258.00372	82.01055	529.92090	209.17674	102.65051	532.14807	204.23460	239.49864	551.15656	288.77423	239.58800	1023.12823	372.47397	281.10672	1216.59692	417.52994	199.35944	1158.27075	461.42694	209.13931	1096.56152	432.63834	307.54456	1131.36853	352.68192	298.84705	
714	3.565	448.29855	254.21674	290.91132	544.87476	254.84279	97.43639	508.37350	205.20065	119.93597	517.04559	200.94061	256.10034	533.66382	286.37970	255.12236	1047.44592	371.30014	259.45590	1246.69861	415.39798	191.74915	1187.74329	459.53513	196.80879	1119.12109	431.44925	291.07852	1154.11731	351.42746	285.23633	
715	3.570	432.29233	250.91380	310.82172	521.76837	252.05855	115.39301	488.21368	203.24138	139.01393	501.73419	197.94792	273.49982	515.70020	284.41983	271.03333	1072.68237	369.63504	238.61685	1276.12720	413.13260	185.40889	1217.12476	457.31702	185.43639	1141.57056	430.20331	275.17404	1176.91174	350.10037	272.61746	
716	3.575	416.67249	246.56790	332.72296	499.11383	250.89075	133.25414	468.57016	199.99918	158.87917	485.40839	197.17274	293.56262	498.10226	282.21506	289.07141	1097.55322	369.00668	218.34306	1305.51880	410.19180	180.70720	1246.22021	454.72034	175.13240	1164.11621	428.82013	259.99982	1199.23767	348.80911	260.90567	
717	3.580	403.40030	242.43311	355.92136	477.39841	248.18874	153.01665	449.45120	197.03139	179.89536	470.92328	194.98207	313.57660	480.51279	279.97571	309.66718	1123.08948	366.67447	199.32298	1333.08960	407.80365	176.62585	1274.77893	451.85712	165.60973	1186.51697	427.50879	245.34999	1221.23816	347.30936	249.74771	
718	3.585	392.93710	238.72673	380.88193	456.35306	246.30974	174.23532	430.82135	194.28804	202.27374	458.42325	192.62910	334.53928	467.52063	278.01358	329.88696	1148.47266	364.84497	182.16820	1359.54846	404.99603	172.90276	1302.87354	448.78214	157.23390	1209.07556	426.04053	231.83574	1242.71582	346.12860	239.20818	
719	3.590	385.13324	235.17555	406.40466	436.15152	244.58504	196.39758	412.98135	191.77257	226.10582	448.43216	190.09297	356.02481	455.97095	274.25562	350.14252	1173.10925	362.99426	166.37614	1384.69922	401.68158	170.11400	1329.20764	445.28314	149.23549	1230.26379	425.49203	219.04564	1263.35828	344.88626	229.45882	
720	3.595	379.21249	232.31212	432.54013	416.96762	242.42863	219.69447	395.87445	189.33989	250.38536	439.56052	187.73705	378.30652	446.02338	272.14853	371.09180	1197.29358	360.91864	152.69241	1408.47156	399.41278	168.25397	1354.39612	441.63800	142.55919	1250.60608	423.43597	206.50668	1283.05078	343.53769	220.57823	
721	3.600	375.53604	230.04893	458.52319	399.48303	240.74489	243.84694	380.26669	186.93571	275.80707	431.93726	184.83170	400.62726	437.58615	269.64648	393.45532	1219.43726	359.41745	140.63118	1429.72583	394.13977	166.88974	1377.78015	437.74808	137.04234	1269.77502	422.72522	195.99948	1300.98071	342.48355	212.86638	
722	3.605	374.16830	227.76785	485.15857	384.23608	238.80200	269.27173	366.96371	184.73030	302.07266	426.02158	181.68799	423.70477	431.92828	267.53387	415.93039	1239.41516	358.37192	131.02277	1448.53027	391.07184	166.46312	1398.75354	434.21042	132.39613	1287.46777	421.70313	186.68636	1317.10205	341.86493	206.35141	
723	3.610	375.47763	225.60216	511.88632	371.54443	236.38167	295.24994	355.96091	182.27461	329.52225	422.73590	181.58455	446.42096	428.45831	265.35629	437.45068	1257.03027	357.60687	123.14941	1463.68311	387.84097	166.75856	1417.33899	430.63724	129.13724	1302.74707	421.10788	178.64005	1331.09851	341.43674	201.13538	
724	3.615	379.33899	224.39124	537.88568	361.83124	232.28481	322.34613	347.90790	179.89186	357.68744	421.86288	179.74629	470.21750	427.03067	263.42020	460.90472	1271.97424	356.88724	116.90121	1478.36304	385.21210	166.92134	1434.07385	427.43271	126.91940	1316.46204	421.12961	173.14752	1342.84753	341.32355	196.98712	
725	3.620	385.78522	223.54317	563.84576	354.58429	229.97182	349.46970	342.96127	177.13266	386.15759	423.74652	178.23155	493.69016	427.93787	261.96381	482.11002	1284.18164	356.63812	111.78629	1489.06848	382.74844	167.42987	1446.57849	424.45892	124.35612	1326.38965	420.41446	167.34813	1352.51306	341.40704	194.14511	
726	3.625	394.59894	223.21008	588.55646	350.11063	226.58119	376.58755	340.90604	174.67137	414.64642	427.97311	176.79446	517.17139	430.98929	260.91693	504.04770	1293.72266	355.97839	107.68239	1497.36377	380.95728	167.43323	1456.52698	422.23587	122.21851	1334.41235	420.25256	163.40399	1359.72620	341.94449	191.82118	
727	3.630	405.37546	223.50471	611.89325	348.18900	223.51598	402.93823	341.67407	171.99777	442.41479	435.31934	176.85204	539.64539	436.58188	259.69339	526.45795	1300.11926	355.45929	104.62161	1502.74939	380.48376	167.18462	1463.69104	420.71667	120.95340	1339.31775	420.47064	160.37350	1364.32324	342.22733	189.86234	
728	3.635	417.91193	224.55611	634.29523	348.94916	220.25197	428.83893	345.31189	169.08867	469.69458	443.88412	179.69598	559.28308	443.84024	259.56369	544.77344	1303.29541	354.84521	101.38647	1505.24597	380.32077	166.42896	1466.26868	419.71527	118.19277	1341.95105	420.53525	157.99988	1366.09937	342.61703	187.69933	
729	3.640	431.92725	226.42126	655.23016	351.87299	217.21355	453.83255	351.18167	167.00566	495.81558	453.39233	176.26288	581.41937	452.57886	259.55115	563.80798	1303.31567	354.13599	98.36062	1504.77051	381.04053	164.94231	1466.11609	419.60242	115.72561	1340.77759	419.96112	154.30937	1365.09204	342.70486	185.17325	
730	3.645	447.38800	228.53503	674.75598	357.42822	213.73264	477.36444	359.21063	164.90405	520.96075	465.17111	176.84595	600.90814	463.15338	259.81213	581.27686	1300.41406	353.59732	94.66452	1501.59314	381.83456	161.92996	1462.79590	420.08090	112.41180	1336.94946	419.89603	150.63145	1361.91882	342.95758	181.75874	
731	3.650	463.87344	231.91568	692.88727	365.19061	210.16238	499.80826	369.60431	162.86522	544.73920	478.57910	177.98515	619.33118	475.03415	260.51392	598.17426	1294.46143	353.03381	90.74078	1495.55737	383.23416	156.84792	1456.45715	420.91113	107.70358	1330.77734	419.44080	146.69928	1356.51770	342.51706	177.93495	
732	3.655	481.40381	235.67960	709.23578	375.29105	208.13387	520.41901	381.65585	161.22653	567.16577	493.10596	179.52011	636.26312	487.96362	261.09106	612.56787	1286.04456	352.17776	86.74618	1487.67188	384.91464	150.26686	1447.39026	421.94855	102.03401	1321.93188	418.83582	142.07390	1349.06165	342.46368	173.03468	
733	3.660	500.03271	239.55032	724.08954	386.70438	204.97392	539.96332	395.78900	159.90213	587.80548	508.89307	180.63959	651.90765	502.54761	262.36893	626.54980	1274.78101	351.30533	82.29907	1477.21973	386.46753	141.87112	1435.43054	422.95313	94.27029	1311.12585	418.60367	137.36696	1339.45300	342.17450	167.29716	
734	3.665	518.83911	243.30966	736.16357	400.18402	202.25497	557.75940	411.32672	158.72569	606.70447	525.99481	182.29414	665.79163	518.23560	263.70331	638.68152	1261.21594	349.83667	77.85800	1463.73804	388.43890	132.94363	1420.77356	424.02155	86.14448	1297.79395	418.23160	131.93405	1327.97241	342.02902	161.18373	
735	3.670	538.66162	247.25731	746.96002	414.75754	201.55562	573.66162	428.42963	158.08583	623.74902	544.31946	184.34857	677.97638	534.88568	265.16193	649.22461	1245.59155	348.72330	73.15598	1450.33679	389.75381	122.64523	1404.30811	425.15439	77.25848	1282.60144	417.44864	125.92540	1314.47107	341.78391	154.64983	
736	3.675	559.38037	251.46541	756.81683	430.17303	201.71104	587.65448	446.61655	158.03864	638.65582	563.14789	186.84190	688.29175	552.81177	266.98404	658.18921	1227.86279	347.77686	68.35105	1433.90063	390.49976	111.47530	1385.64270	425.62985	67.37325	1265.83167	417.10767	119.89733	1299.23438	341.54614	147.61014	
737	3.680	580.35901	254.85028	764.68512	446.35599	202.28790	599.70624	465.74945	158.13667	651.30878	582.66724	189.41534	696.94904	570.56342	268.76791	665.36377	1208.47070	347.00085	63.67004	1415.46228	390.63776	99.88972	1365.57971	425.73395	57.49638	1247.70911	416.70792	113.73290	1282.37158	341.40067	140.46019	
738	3.685	600.99084	259.13525	770.06464	463.18332	203.21782	609.79193	485.26257	158.27620	661.95532	602.61902	191.69502	703.61121	589.29340	270.90375	671.90991	1187.06567	347.62686	59.02003	1395.53748	390.25217	87.36708	1344.42053	425.39026	47.02741	1228.46899	416.42749	107.54114	1264.34595	341.08182	133.18556	
739	3.690	622.56366	261.10391	775.54395	480.53204	204.43237	617.88654	505.22238	159.19504	670.29236	622.63617	193.68312	708.56970	608.15674	272.76190	676.58429	1163.84900	346.99420	56.13644	1374.68372	388.74576	75.30621	1322.44165	427.22498	40.85776	1209.08325	416.35248	101.77470	1244.80115	340.52332	125.95261	
740	3.695	643.64630	263.92441	778.65601	498.27902	205.86319	623.96497	525.34918	159.93802	676.64661	642.62714	196.09662	711.79407	627.06995	274.72852	679.76630	1138.86475	345.52884	56.66564	1352.83032	383.07626	65.75852	1295.27173	426.06250	42.93434	1188.68909	415.15839	96.14243	1222.62244	336.91672	119.81473	
741	3.700	664.31476	266.53476	780.49628	516.30133	207.44180	628.00220	545.33612	160.68143	680.54565	662.49115	197.96573	713.54193	646.13263	276.69199	681.08368	1109.98132	345.91183	52.63685	1324.84998	375.18683	60.46861	1268.80457	422.13126	44.38110	1165.85193	408.96622	94.01926	1194.51648	328.70624	115.55884	
742	3.705	683.96667	269.36725	780.39172	534.47577	209.09988	629.97339	565.01587	161.73145	682.17065	681.99005	199.63506	713.56403	665.14368	278.59311	681.17590	1079.25952	337.27347	46.85326	1294.71326	371.64328	60.44538	1238.10071	418.66443	45.39678	1138.52722	401.11810	95.48014	1163.23169	320.77661	110.70627	
743	3.710	703.17969	271.11835	779.47150	552.67938	210.76897	629.85333	584.27844	163.62480	681.65466	700.54669	201.56750	712.29395	684.17548	280.30710	679.94873	1051.29492	332.64142	48.56180	1265.71912	368.80975	58.47091	1208.95032	416.12128	46.04567	1108.60596	393.48529	97.96100	1136.85059	314.32898	109.00790	
744	3.715	721.26563	272.37863	777.21484	570.78925	212.38071	627.61713	602.78888	164.91765	679.15027	718.79315	203.09592	709.65192	702.76526	282.15326	677.87244	1023.58124	328.32407	49.88660	1239.46948	367.96658	57.08064	1180.55042	412.29333	46.29775	1082.04199	387.62521	99.85036	1114.07251	309.21732	110.85920	
745	3.720	738.21362	275.25922	774.21429	588.68207	213.86664	623.23962	620.40613	166.46611	674.34454	736.04871	205.56607	705.65179	720.52118	283.99033	674.05548	995.75525	324.87131	51.82426	1210.30579	367.46201	56.80043	1150.83423	411.74146	46.57298	1057.60437	385.03137	101.64440	1089.91626	305.76813	111.97915	
746	3.725	753.55237	266.19611	768.26282	606.23499	215.15843	616.69604	636.98785	168.05540	667.52600	751.85248	206.80373	700.94110	737.56281	285.21692	668.86047	967.27551	323.94366	53.36975	1181.45923	366.69440	56.34328	1121.70459	411.01611	46.64632	1030.29077	383.87625	103.44015	1062.58850	304.22650	112.23526	
